<?xml version="1.0" encoding="utf-8"?>
<!-- Generator: Adobe Illustrator 21.1.0, SVG Export Plug-In . SVG Version: 6.00 Build 0)  -->
<svg version="1.1" id="Layer_1" xmlns="http://www.w3.org/2000/svg" xmlns:xlink="http://www.w3.org/1999/xlink" x="0px" y="0px"
	 viewBox="0 0 1920 1080" style="enable-background:new 0 0 1920 1080;" xml:space="preserve">
<style type="text/css">
	.st0{fill:#004477;}
	.st1{fill:#FFF48D;}
	.st2{opacity:8.000000e-02;}
	.st3{fill:#919191;}
	.st4{fill:#B5B5B5;}
	.st5{fill:#666666;}
	.st6{fill:#1AA3FF;}
	.st7{fill:#0076B7;}
	.st8{fill:#DD8910;}
	.st9{fill:#D65600;}
	.st10{opacity:0.15;fill:#050505;}
	.st11{fill:#683E11;}
	.st12{fill:#FFE315;}
	.st13{fill:#9B1C37;}
	.st14{fill:#E58A30;}
	.st15{fill:#75102A;}
	.st16{fill:#60D2F4;}
	.st17{opacity:0.1;}
	.st18{fill:#0C0C0C;}
	.st19{opacity:0.39;fill:#9FC7F7;}
	.st20{opacity:0.68;fill:#FFFFFF;}
	.st21{fill:none;stroke:#0C0C0C;stroke-width:25;stroke-miterlimit:10;}
	.st22{fill:#DBDBDB;}
</style>
<g>
	<rect x="1037.1" y="96.4" class="st0" width="192.6" height="502.7"/>
	<rect x="1037.1" y="229.7" class="st1" width="192.6" height="40.2"/>
	<rect x="1037.1" y="319.2" class="st1" width="192.6" height="40.2"/>
	<rect x="1037.1" y="408.7" class="st1" width="192.6" height="40.2"/>
	<rect x="1037.1" y="141.7" class="st1" width="192.6" height="40.2"/>
	<rect x="1126.4" y="96.4" class="st2" width="103.3" height="502.7"/>
	<polygon class="st3" points="975.4,215.7 922.7,215.7 869.9,270 869.9,288.2 922.7,288.2 975.4,288.2 975.5,288.2 975.5,215.7 	"/>
	<polygon class="st3" points="1028.2,215.7 975.5,215.7 975.5,288.2 1028.2,288.2 1081,288.2 1081,270 	"/>
	<polygon class="st4" points="975.5,281 975.5,601.2 975.5,281 886.2,281 886.2,601.6 1064.7,601.6 1064.7,281 	"/>
	<rect x="869.9" y="271.2" class="st5" width="105.6" height="17.2"/>
	<rect x="975.5" y="271.2" class="st5" width="105.4" height="17.2"/>
	<rect x="945.6" y="306.8" class="st6" width="20.1" height="32.3"/>
	<rect x="945.6" y="306.8" class="st7" width="20.1" height="5.4"/>
	<rect x="988" y="306.6" class="st6" width="20.1" height="32.3"/>
	<rect x="988" y="306.6" class="st7" width="20.1" height="5.4"/>
	<rect x="988" y="376" class="st6" width="20.1" height="32.3"/>
	<rect x="988" y="376" class="st7" width="20.1" height="5.4"/>
	<rect x="945.6" y="376.2" class="st6" width="20.1" height="32.3"/>
	<rect x="945.6" y="376" class="st7" width="20.1" height="5.4"/>
	<rect x="945.6" y="445.7" class="st6" width="20.1" height="32.3"/>
	<rect x="945.6" y="445.5" class="st7" width="20.1" height="5.4"/>
	<rect x="988" y="445.5" class="st6" width="20.1" height="32.3"/>
	<rect x="988" y="445.5" class="st7" width="20.1" height="5.4"/>
	<rect x="1005.1" y="541.9" class="st8" width="29.6" height="59.3"/>
	<rect x="916" y="542.3" class="st8" width="29.7" height="59.3"/>
	<rect x="916" y="542.3" class="st9" width="29.7" height="5.9"/>
	<rect x="1005.1" y="541.9" class="st9" width="29.6" height="5.9"/>
	<polygon class="st10" points="1028.2,215.7 975.5,215.7 975.5,288.2 1028.2,288.2 1081,288.2 1081,270 	"/>
	<rect x="975.5" y="271.2" class="st10" width="105.4" height="17.2"/>
	<rect x="899.3" y="306.8" class="st6" width="17.9" height="32.3"/>
	<rect x="899.3" y="306.8" class="st7" width="17.9" height="5.4"/>
	<rect x="1036.2" y="306.8" class="st6" width="17.9" height="32.3"/>
	<rect x="1036.2" y="306.8" class="st7" width="17.9" height="5.4"/>
	<rect x="1036.2" y="376.2" class="st6" width="17.9" height="32.3"/>
	<rect x="1036.2" y="376" class="st7" width="17.9" height="5.4"/>
	<rect x="1036.2" y="445.7" class="st6" width="17.9" height="32.3"/>
	<rect x="1036.2" y="445.5" class="st7" width="17.9" height="5.4"/>
	<rect x="899.3" y="376.2" class="st6" width="17.9" height="32.3"/>
	<rect x="899.3" y="376" class="st7" width="17.9" height="5.4"/>
	<rect x="975.3" y="287.7" class="st10" width="89.3" height="313.3"/>
	<rect x="1229.6" y="380.5" class="st11" width="27.8" height="41.4"/>
	<rect x="1107.7" y="474" class="st12" width="190.3" height="127"/>
	<polygon class="st13" points="1312.4,474 1257.6,474 1202.8,474 1148,474 1093.2,474 1148,401.2 1202.8,401.2 1257.6,401.2 	"/>
	<rect x="1107.7" y="588.1" class="st14" width="190.3" height="12.8"/>
	<rect x="1183.5" y="535.3" class="st15" width="38.5" height="66.3"/>
	<g>
		<rect x="1247.6" y="498.9" class="st11" width="33.7" height="42.1"/>
		<rect x="1250.1" y="502.5" class="st16" width="28.5" height="35.7"/>
		<rect x="1248.8" y="510.3" class="st11" width="30.7" height="3.6"/>
	</g>
	<g>
		<rect x="1126.3" y="498.9" class="st11" width="33.7" height="42.1"/>
		<rect x="1128.9" y="502.5" class="st16" width="28.5" height="35.7"/>
		<rect x="1127.6" y="510.3" class="st11" width="30.7" height="3.6"/>
	</g>
	<polygon class="st17" points="1107.7,474 1183.2,601.6 1298.1,600.9 1298,474 	"/>
	<rect x="899.3" y="445.7" class="st6" width="17.9" height="32.3"/>
	<rect x="899.3" y="445.5" class="st7" width="17.9" height="5.4"/>
	
		<rect x="562.4" y="699.9" transform="matrix(0.736 0.677 -0.677 0.736 766.6304 -177.6319)" class="st18" width="97.4" height="388.4"/>
	
		<ellipse transform="matrix(0.677 -0.736 0.736 0.677 78.7218 923.1755)" class="st19" cx="1091.1" cy="371.9" rx="311.8" ry="311.8"/>
	
		<ellipse transform="matrix(0.677 -0.736 0.736 0.677 163.5337 1056.2615)" class="st20" cx="1285.1" cy="341.8" rx="35.2" ry="35.2"/>
	
		<ellipse transform="matrix(0.677 -0.736 0.736 0.677 78.7218 923.1755)" class="st21" cx="1091.1" cy="371.9" rx="324.9" ry="324.9"/>
	<path class="st18" d="M766,756l-30.3-27.9c-4.9-4.5-5.2-12.1-0.7-17l112.6-122.4c4.5-4.9,12.1-5.2,17-0.7l30.3,27.9
		c4.9,4.5,5.2,12.1,0.7,17L783,755.3C778.5,760.1,770.9,760.4,766,756z"/>
	<path class="st22" d="M752.5,794.5l-54-49.7c-4.9-4.5-5.2-12.1-0.7-17l21.6-23.4c4.5-4.9,12.1-5.2,17-0.7l54,49.7
		c4.9,4.5,5.2,12.1,0.7,17l-21.6,23.4C765,798.7,757.3,799,752.5,794.5z"/>
</g>
</svg>
